<svg xmlns="http://www.w3.org/2000/svg" width="308.799" height="58.742" viewBox="0 0 308.799 58.742">
  <g id="Group_1" data-name="Group 1" transform="translate(477.811 1169.369)">
    <path id="Path_1" data-name="Path 1" d="M-429.944-1142.274a4.153,4.153,0,0,0-2.848,1.126c-7,6.562-14.63,11.649-21.478,14.325a25.307,25.307,0,0,1-8.811,1.987,6.649,6.649,0,0,1-4.853-1.56c-2.212-2.212-2.052-7.319.428-13.662,2.676-6.848,7.763-14.475,14.326-21.478a4.147,4.147,0,0,0-.094-5.793,4.141,4.141,0,0,0-2.946-1.221,4.189,4.189,0,0,0-3.044,1.32c-7.273,7.766-12.956,16.338-16,24.138-3.833,9.8-3.32,17.828,1.44,22.588,2.645,2.645,6.258,3.987,10.737,3.987a33.039,33.039,0,0,0,11.852-2.544c7.8-3.051,16.377-8.734,24.138-16a4.135,4.135,0,0,0,1.32-2.975,4.134,4.134,0,0,0-1.219-3.014A4.14,4.14,0,0,0-429.944-1142.274Z" transform="translate(0 0.312)" fill="#fff"/>
    <path id="Path_2" data-name="Path 2" d="M-420.638-1169.369a33.052,33.052,0,0,0-11.854,2.544c-7.8,3.048-16.372,8.731-24.138,16a4.13,4.13,0,0,0-1.318,2.975,4.129,4.129,0,0,0,1.219,3.014,4.137,4.137,0,0,0,2.945,1.22,4.156,4.156,0,0,0,2.848-1.125c7-6.563,14.63-11.651,21.478-14.327a25.321,25.321,0,0,1,8.811-1.988,6.643,6.643,0,0,1,4.851,1.56c2.212,2.212,2.053,7.32-.427,13.664-2.676,6.848-7.763,14.476-14.325,21.478a4.147,4.147,0,0,0,.094,5.793,4.137,4.137,0,0,0,2.945,1.22,4.179,4.179,0,0,0,3.044-1.32c7.27-7.762,12.954-16.335,16-24.138,3.831-9.805,3.319-17.828-1.443-22.589C-412.548-1168.027-416.16-1169.369-420.638-1169.369Z" transform="translate(7.559)" fill="#fff"/>
    <path id="Path_3" data-name="Path 3" d="M-369.354-1144.592c-2.368-2.153-5.7-3.461-9.9-3.885a18.951,18.951,0,0,1-6.044-1.408,6.027,6.027,0,0,1-2.754-2.274,5.544,5.544,0,0,1-.743-2.752,4.4,4.4,0,0,1,2.357-4.132,12.178,12.178,0,0,1,6.2-1.365,10.516,10.516,0,0,1,3.625.566,8.6,8.6,0,0,1,2.658,1.549,8.9,8.9,0,0,1,1.926,2.424,3.389,3.389,0,0,0,1.978,1.563,2.9,2.9,0,0,0,2.528-.313,2.6,2.6,0,0,0,1.223-1.919,3.709,3.709,0,0,0-.663-2.46,16.517,16.517,0,0,0-3.153-3.794,13.664,13.664,0,0,0-4.273-2.528,16.331,16.331,0,0,0-5.694-.911,21.219,21.219,0,0,0-7.512,1.276,12.433,12.433,0,0,0-5.417,3.78,9.478,9.478,0,0,0-2.025,6.109,10.419,10.419,0,0,0,3.851,8.2c2.521,2.166,6.014,3.479,10.379,3.9,3.162.334,5.449,1.2,6.8,2.563a6.335,6.335,0,0,1,2.017,4.6,4.856,4.856,0,0,1-1.18,3.348,7.792,7.792,0,0,1-3.209,2.128,12.732,12.732,0,0,1-4.43.75,12.972,12.972,0,0,1-4.107-.65,11.34,11.34,0,0,1-3.316-1.694,6.289,6.289,0,0,1-1.911-2.215,3.652,3.652,0,0,0-1.577-1.691,3.048,3.048,0,0,0-2.159-.334,3.051,3.051,0,0,0-2.158,1.419,2.5,2.5,0,0,0-.052,2.447,11.958,11.958,0,0,0,3.4,4.486,16.931,16.931,0,0,0,5.394,2.99,19.811,19.811,0,0,0,6.486,1.064,20.774,20.774,0,0,0,5.551-.744,15.086,15.086,0,0,0,4.82-2.278,11.769,11.769,0,0,0,3.407-3.81,10.878,10.878,0,0,0,1.28-5.371A11.16,11.16,0,0,0-369.354-1144.592Z" transform="translate(30.992 1.194)" fill="#fff"/>
    <path id="Path_4" data-name="Path 4" d="M-345.013-1156.792a2.705,2.705,0,0,0-3.884,1.49l-7.94,17.934-9.061-18a2.928,2.928,0,0,0-1.608-1.561,2.9,2.9,0,0,0-2.219.084,2.933,2.933,0,0,0-1.626,1.571,2.568,2.568,0,0,0,.146,2.3l11.557,21.954-5.079,11.473a2.92,2.92,0,0,0-.228,2.279,3.011,3.011,0,0,0,1.716,1.624,3.673,3.673,0,0,0,1.432.349,2.556,2.556,0,0,0,2.455-1.889l15.882-35.711a2.939,2.939,0,0,0,.208-2.318A2.986,2.986,0,0,0-345.013-1156.792Z" transform="translate(40.44 4.665)" fill="#fff"/>
    <path id="Path_5" data-name="Path 5" d="M-326.279-1155.694a13.778,13.778,0,0,0-6.635-1.589,13.173,13.173,0,0,0-6.4,1.564,12.59,12.59,0,0,0-1.977,1.334,2.952,2.952,0,0,0-.838-1.774,3.06,3.06,0,0,0-2.253-.863,3.091,3.091,0,0,0-2.223.857,3.023,3.023,0,0,0-.9,2.262v23.151a3.026,3.026,0,0,0,.89,2.227,3.033,3.033,0,0,0,2.228.892,3.005,3.005,0,0,0,2.259-.9,3.081,3.081,0,0,0,.86-2.221v-14.64a5.332,5.332,0,0,1,.953-3.129,6.949,6.949,0,0,1,2.627-2.21,8.291,8.291,0,0,1,3.736-.834,9.043,9.043,0,0,1,4.022.86,6.439,6.439,0,0,1,2.734,2.593,9.083,9.083,0,0,1,1.027,4.589v12.77a3.025,3.025,0,0,0,.889,2.227,3.033,3.033,0,0,0,2.228.892,3.035,3.035,0,0,0,2.228-.892,3.03,3.03,0,0,0,.891-2.227v-12.77a15.377,15.377,0,0,0-1.694-7.5A11.557,11.557,0,0,0-326.279-1155.694Z" transform="translate(49.594 4.6)" fill="#fff"/>
    <path id="Path_6" data-name="Path 6" d="M-301.821-1156.034a13.816,13.816,0,0,0-5.8-1.211,14.709,14.709,0,0,0-7.5,1.907,13.761,13.761,0,0,0-5.159,5.292,15.658,15.658,0,0,0-1.876,7.7,15.14,15.14,0,0,0,1.9,7.578,14.2,14.2,0,0,0,5.26,5.314,14.914,14.914,0,0,0,7.635,1.959,13.706,13.706,0,0,0,9.678-3.617,2.382,2.382,0,0,0,.758-2.023,2.949,2.949,0,0,0-1.15-1.941,2.518,2.518,0,0,0-1.905-.6,3.628,3.628,0,0,0-1.969.857,7.173,7.173,0,0,1-2.364,1.291,10.039,10.039,0,0,1-3.048.418,8.618,8.618,0,0,1-4.581-1.2,8.474,8.474,0,0,1-3.075-3.273,9.964,9.964,0,0,1-1.113-4.76,10.5,10.5,0,0,1,1.089-4.92,8.036,8.036,0,0,1,2.99-3.215,8.464,8.464,0,0,1,4.429-1.151,7.936,7.936,0,0,1,6,2.561,3.624,3.624,0,0,0,1.847,1.037,2.433,2.433,0,0,0,1.98-.416,3.17,3.17,0,0,0,1.325-1.833,2.318,2.318,0,0,0-.621-2.129A14.02,14.02,0,0,0-301.821-1156.034Z" transform="translate(59.239 4.614)" fill="#fff"/>
    <path id="Path_7" data-name="Path 7" d="M-276.408-1155.34a15.1,15.1,0,0,0-7.606-1.905,15.2,15.2,0,0,0-7.658,1.905,13.884,13.884,0,0,0-5.237,5.264,15.438,15.438,0,0,0-1.905,7.733,15.336,15.336,0,0,0,1.905,7.682,13.873,13.873,0,0,0,5.237,5.264,15.2,15.2,0,0,0,7.658,1.905,15.2,15.2,0,0,0,7.657-1.905,13.7,13.7,0,0,0,5.213-5.267,15.522,15.522,0,0,0,1.876-7.679,15.464,15.464,0,0,0-1.9-7.733A13.884,13.884,0,0,0-276.408-1155.34Zm0,17.81a8.29,8.29,0,0,1-3.07,3.244,8.681,8.681,0,0,1-4.532,1.178,8.679,8.679,0,0,1-4.534-1.178,8.473,8.473,0,0,1-3.1-3.249,9.9,9.9,0,0,1-1.136-4.809,10.057,10.057,0,0,1,1.138-4.836,8.408,8.408,0,0,1,3.1-3.272,8.68,8.68,0,0,1,4.534-1.179,8.682,8.682,0,0,1,4.532,1.179,8.242,8.242,0,0,1,3.07,3.268,10.242,10.242,0,0,1,1.113,4.84A10.079,10.079,0,0,1-276.411-1137.53Z" transform="translate(68.126 4.614)" fill="#fff"/>
    <path id="Path_8" data-name="Path 8" d="M-262.826-1130.543h-1.3a1.689,1.689,0,0,1-1.462-1.012,5.781,5.781,0,0,1-.661-2.928v-28.342a3,3,0,0,0-.866-2.2,3,3,0,0,0-2.2-.864,3,3,0,0,0-2.2.864,3,3,0,0,0-.864,2.2v28.342a12.31,12.31,0,0,0,1.029,5.154,8.776,8.776,0,0,0,2.908,3.59,7.336,7.336,0,0,0,4.321,1.331h.1a4.639,4.639,0,0,0,2.823-.819,2.681,2.681,0,0,0,1.178-2.248,3.166,3.166,0,0,0-.769-2.183A2.617,2.617,0,0,0-262.826-1130.543Z" transform="translate(78.186 1.323)" fill="#fff"/>
    <path id="Path_9" data-name="Path 9" d="M-255.889-1157.609a3.762,3.762,0,0,0,2.746-1.15,3.764,3.764,0,0,0,1.151-2.748,3.768,3.768,0,0,0-1.15-2.747,3.765,3.765,0,0,0-2.747-1.15,3.759,3.759,0,0,0-2.746,1.15,3.76,3.76,0,0,0-1.151,2.747,3.757,3.757,0,0,0,1.15,2.746A3.763,3.763,0,0,0-255.889-1157.609Z" transform="translate(82.98 1.509)" fill="#fff"/>
    <path id="Path_10" data-name="Path 10" d="M-256.1-1157.094a3.088,3.088,0,0,0-2.223.857,3.017,3.017,0,0,0-.9,2.261v23.1a3.036,3.036,0,0,0,.89,2.228,3.031,3.031,0,0,0,2.228.891,3.014,3.014,0,0,0,2.26-.9,3.091,3.091,0,0,0,.86-2.223v-23.1a3.072,3.072,0,0,0-.866-2.256A3.07,3.07,0,0,0-256.1-1157.094Z" transform="translate(83.194 4.672)" fill="#fff"/>
  </g>
</svg>
