<svg xmlns="http://www.w3.org/2000/svg" xmlns:xlink="http://www.w3.org/1999/xlink" width="23.415" height="15.806" viewBox="0 0 23.415 15.806">
  <defs>
    <linearGradient id="linear-gradient" y1="0.5" x2="1" y2="0.5" gradientUnits="objectBoundingBox">
      <stop offset="0" stop-color="#fbfbfd"/>
      <stop offset="0" stop-color="#48b7aa"/>
      <stop offset="0.302" stop-color="#4d9fac"/>
      <stop offset="1" stop-color="#5a6eb2"/>
    </linearGradient>
  </defs>
  <path id="Path_27" data-name="Path 27" d="M-4.666-75.266l.032-.027.027-.016.034-.023.027-.014.036-.02.027-.011.038-.016.027-.011.041-.014.029-.007.043-.011.027,0,.048-.007.025,0,.072,0h21.66l.075,0,.023,0,.05.007.027,0,.043.011.029.007.038.014.029.011.038.016.027.011.036.02.027.014.034.023.025.016.034.027.018.014L7.32-64.489a.874.874,0,0,1-.62.256.87.87,0,0,1-.62-.256L-4.684-75.252l.018-.014Zm-.342,2.172,5.55,5.55-5.55,5.55ZM17.529-59.647H-4.116a.885.885,0,0,1-.555-.2L1.783-66.3l3.055,3.053a2.608,2.608,0,0,0,1.861.772,2.608,2.608,0,0,0,1.861-.772l3.068-3.068,6.463,6.463a.867.867,0,0,1-.564.206Zm.879-2.376-5.535-5.535,5.535-5.537Z" transform="translate(5.008 75.454)" opacity="0.87" fill="url(#linear-gradient)"/>
</svg>
